# xmcd
#
# Track frame offsets: 
#        150
#        38198
#        81248
#        113460
#        144373
#        162055
#        173809
#        183019
#        213953
#        233772
#        262919
#        271936
#        282704
#
# Disc length: 4059 seconds
#
# Revision: 6
# Processed by: cddbd v1.5.2PL0 Copyright (c) Steve Scherf et al.
# Submitted via: ExactAudioCopy v0.99pb5
#
DISCID=a70fd90d
DTITLE=Christian Schmitt - Stanislav Skrowaczewski, Minnesota Orchestra
DTITLE=Sir Neville Marriner - Academy St Martin - Beethoven - Orchest
DTITLE=ral Works - Organ Works
DYEAR=1989
DGENRE=Classical
TTITLE0=01. Coriolan - Overture Op.62
TTITLE1=02. Wellington's Victory or the Battle of Victoria, Op.91 - Sc
TTITLE1=hlact (Battle)
TTITLE2=03. Wellington's Victory or the Battle of Victoria, Op.91 - Si
TTITLE2=eges-Symphonie (Symphony of Triumph) 
TTITLE3=04. Namensfeier - Overture Op.115
TTITLE4=05. Gratulationsmenuett, WoO 3
TTITLE5=06. Marche Triomphale de ''Tarpeja'', WoO 2
TTITLE6=07. Fugue in D major, WoO 31
TTITLE7=08. Stucke fur Flotenuhr, WoO 33 - Allegro non piu molto
TTITLE8=09. Stucke fur Flotenuhr, WoO 33 - Allegretto
TTITLE9=10. Stucke fur Flotenuhr, WoO 33 - Adagio assai
TTITLE10=11. Stucke fur Flotenuhr, WoO 33 - Scherzo, allegro
TTITLE11=12. Stucke fur Flotenuhr, WoO 33 - Allegro
TTITLE12=13. Grenadiermarsch Hess 107
EXTD=YEAR: 1989
EXTT0=
EXTT1=
EXTT2=
EXTT3=
EXTT4=
EXTT5=
EXTT6=
EXTT7=
EXTT8=
EXTT9=
EXTT10=
EXTT11=
EXTT12=
PLAYORDER=
